BioRhyme-Bold Extended.ufo
<glyph name="exclam" format="1">
  <advance width="321"/>
  <unicode hex="0021"/>
  <outline>
    <contour>
      <point x="186" y="149" type="line"/>
      <point x="197" y="260" type="line" smooth="yes"/>
      <point x="208" y="367"/>
      <point x="246" y="447"/>
      <point x="246" y="493" type="curve"/>
      <point x="246" y="533"/>
      <point x="224" y="572"/>
      <point x="161" y="572" type="curve"/>
      <point x="98" y="572"/>
      <point x="77" y="533"/>
      <point x="77" y="493" type="curve"/>
      <point x="77" y="447"/>
      <point x="108" y="365"/>
      <point x="127" y="260" type="curve" smooth="yes"/>
      <point x="138" y="149" type="line"/>
    </contour>
    <contour>
      <point x="109" y="120"/>
      <point x="73" y="94"/>
      <point x="73" y="54" type="curve"/>
      <point x="73" y="17"/>
      <point x="109" y="-10"/>
      <point x="161" y="-10" type="curve"/>
      <point x="215" y="-10"/>
      <point x="248" y="17"/>
      <point x="248" y="54" type="curve"/>
      <point x="248" y="94"/>
      <point x="215" y="120"/>
      <point x="161" y="120" type="curve"/>
    </contour>
  </outline>
</glyph>
<glyph name="quotedbl" format="1">
  <advance width="417"/>
  <unicode hex="0022"/>
  <outline>
    <contour>
      <point x="54" y="354" type="line"/>
      <point x="126" y="348" type="line"/>
      <point x="181" y="544" type="line"/>
      <point x="64" y="557" type="line"/>
    </contour>
    <contour>
      <point x="252" y="353" type="line"/>
      <point x="324" y="347" type="line"/>
      <point x="379" y="543" type="line"/>
      <point x="262" y="557" type="line"/>
    </contour>
  </outline>
</glyph>
<glyph name="quotesingle" format="1">
  <advance width="239"/>
  <unicode hex="0027"/>
  <outline>
    <contour>
      <point x="54" y="360" type="line"/>
      <point x="125" y="347" type="line"/>
      <point x="201" y="536" type="line"/>
      <point x="86" y="562" type="line"/>
    </contour>
  </outline>
</glyph>
<glyph name="parenright" format="1">
  <advance width="380"/>
  <unicode hex="0029"/>
  <outline>
    <contour>
      <point x="119" y="-107"/>
      <point x="315" y="7"/>
      <point x="315" y="255" type="curve" smooth="yes"/>
      <point x="315" y="503"/>
      <point x="106" y="629"/>
      <point x="-2" y="645" type="curve"/>
      <point x="-25" y="602" type="line"/>
      <point x="24" y="594"/>
      <point x="204" y="482"/>
      <point x="204" y="255" type="curve" smooth="yes"/>
      <point x="204" y="28"/>
      <point x="36" y="-71"/>
      <point x="-25" y="-90" type="curve"/>
      <point x="-2" y="-135" type="line"/>
    </contour>
  </outline>
</glyph>
<glyph name="asterisk" format="1">
  <advance width="460"/>
  <unicode hex="002A"/>
  <outline>
    <contour>
      <point x="176" y="557"/>
      <point x="201" y="517"/>
      <point x="205" y="499" type="curve" smooth="yes"/>
      <point x="208" y="485" type="line"/>
      <point x="251" y="485" type="line"/>
      <point x="255" y="499" type="line" smooth="yes"/>
      <point x="258" y="515"/>
      <point x="288" y="557"/>
      <point x="288" y="578" type="curve" smooth="yes"/>
      <point x="288" y="598"/>
      <point x="272" y="622"/>
      <point x="232" y="624" type="curve" smooth="yes"/>
      <point x="188" y="622"/>
      <point x="176" y="598"/>
      <point x="176" y="578" type="curve" smooth="yes"/>
    </contour>
    <contour>
      <point x="286" y="438" type="line"/>
      <point x="303" y="440" type="line" smooth="yes"/>
      <point x="321" y="440"/>
      <point x="357" y="431"/>
      <point x="385" y="435" type="curve" smooth="yes"/>
      <point x="411" y="437"/>
      <point x="435" y="451"/>
      <point x="431" y="491" type="curve" smooth="yes"/>
      <point x="424" y="527"/>
      <point x="400" y="539"/>
      <point x="377" y="538" type="curve" smooth="yes"/>
      <point x="345" y="537"/>
      <point x="315" y="495"/>
      <point x="289" y="485" type="curve" smooth="yes"/>
      <point x="273" y="477" type="line"/>
    </contour>
    <contour>
      <point x="251" y="382" type="line" smooth="yes"/>
      <point x="271" y="349"/>
      <point x="261" y="295"/>
      <point x="299" y="289" type="curve" smooth="yes"/>
      <point x="309" y="284"/>
      <point x="329" y="281"/>
      <point x="354" y="298" type="curve" smooth="yes"/>
      <point x="377" y="314"/>
      <point x="374" y="333"/>
      <point x="371" y="344" type="curve" smooth="yes"/>
      <point x="369" y="377"/>
      <point x="313" y="390"/>
      <point x="290" y="412" type="curve" smooth="yes"/>
      <point x="275" y="423" type="line"/>
      <point x="241" y="397" type="line"/>
    </contour>
    <contour>
      <point x="170" y="412" type="line" smooth="yes"/>
      <point x="148" y="390"/>
      <point x="91" y="377"/>
      <point x="88" y="344" type="curve" smooth="yes"/>
      <point x="85" y="332"/>
      <point x="84" y="313"/>
      <point x="108" y="297" type="curve" smooth="yes"/>
      <point x="133" y="280"/>
      <point x="151" y="284"/>
      <point x="160" y="289" type="curve" smooth="yes"/>
      <point x="198" y="295"/>
      <point x="188" y="349"/>
      <point x="209" y="382" type="curve" smooth="yes"/>
      <point x="218" y="397" type="line"/>
      <point x="186" y="423" type="line"/>
    </contour>
    <contour>
      <point x="26" y="449"/>
      <point x="52" y="436"/>
      <point x="82" y="434" type="curve" smooth="yes"/>
      <point x="109" y="431"/>
      <point x="143" y="440"/>
      <point x="158" y="440" type="curve" smooth="yes"/>
      <point x="176" y="438" type="line"/>
      <point x="188" y="477" type="line"/>
      <point x="172" y="485" type="line" smooth="yes"/>
      <point x="146" y="495"/>
      <point x="115" y="537"/>
      <point x="83" y="538" type="curve" smooth="yes"/>
      <point x="60" y="539"/>
      <point x="37" y="527"/>
      <point x="30" y="491" type="curve" smooth="yes"/>
    </contour>
  </outline>
</glyph>
<glyph name="period" format="1">
  <advance width="285"/>
  <unicode hex="002E"/>
  <outline>
    <contour>
      <point x="197" y="-10"/>
      <point x="230" y="17"/>
      <point x="230" y="54" type="curve"/>
      <point x="230" y="94"/>
      <point x="197" y="120"/>
      <point x="143" y="120" type="curve"/>
      <point x="91" y="120"/>
      <point x="55" y="94"/>
      <point x="55" y="54" type="curve"/>
      <point x="55" y="17"/>
      <point x="91" y="-10"/>
      <point x="143" y="-10" type="curve"/>
    </contour>
  </outline>
</glyph>
<glyph name="slash" format="1">
  <advance width="551"/>
  <unicode hex="002F"/>
  <outline>
    <contour>
      <point x="516" y="561" type="line"/>
      <point x="411" y="561" type="line"/>
      <point x="17" y="-79" type="line"/>
      <point x="122" y="-79" type="line"/>
    </contour>
  </outline>
</glyph>
<glyph name="one" format="1">
  <advance width="523"/>
  <unicode hex="0031"/>
  <outline>
    <contour>
      <point x="193" y="279"/>
      <point x="242" y="313"/>
      <point x="281" y="389" type="curve"/>
      <point x="250" y="468" type="line"/>
      <point x="213" y="394"/>
      <point x="149" y="371"/>
      <point x="64" y="349" type="curve"/>
      <point x="101" y="250" type="line"/>
    </contour>
    <contour>
      <point x="505" y="0" type="line"/>
      <point x="505" y="96" type="line"/>
      <point x="76" y="96" type="line"/>
      <point x="76" y="0" type="line"/>
    </contour>
    <contour>
      <point x="366" y="30" type="line"/>
      <point x="366" y="468" type="line"/>
      <point x="250" y="468" type="line"/>
      <point x="250" y="30" type="line"/>
    </contour>
  </outline>
</glyph>
<glyph name="five" format="1">
  <advance width="713"/>
  <unicode hex="0035"/>
  <outline>
    <contour>
      <point x="106" y="372" type="line"/>
      <point x="640" y="372" type="line"/>
      <point x="640" y="470" type="line"/>
      <point x="106" y="470" type="line"/>
    </contour>
    <contour>
      <point x="658" y="256"/>
      <point x="535" y="299"/>
      <point x="378" y="301" type="curve" smooth="yes"/>
      <point x="253" y="303"/>
      <point x="148" y="280"/>
      <point x="77" y="268" type="curve"/>
      <point x="77" y="177" type="line"/>
      <point x="148" y="183"/>
      <point x="230" y="205"/>
      <point x="352" y="204" type="curve" smooth="yes"/>
      <point x="491" y="205"/>
      <point x="539" y="179"/>
      <point x="539" y="144" type="curve" smooth="yes"/>
      <point x="539" y="94"/>
      <point x="454" y="75"/>
      <point x="362" y="75" type="curve" smooth="yes"/>
      <point x="243" y="75"/>
      <point x="136" y="113"/>
      <point x="75" y="153" type="curve"/>
      <point x="34" y="59" type="line"/>
      <point x="85" y="29"/>
      <point x="192" y="-16"/>
      <point x="361" y="-22" type="curve" smooth="yes"/>
      <point x="527" y="-30"/>
      <point x="658" y="48"/>
      <point x="658" y="144" type="curve" smooth="yes"/>
    </contour>
    <contour>
      <point x="77" y="219" type="line"/>
      <point x="193" y="248" type="line"/>
      <point x="193" y="470" type="line"/>
      <point x="77" y="470" type="line"/>
    </contour>
  </outline>
</glyph>
<glyph name="nine" format="1">
  <advance width="721"/>
  <unicode hex="0039"/>
  <outline>
    <contour>
      <point x="518" y="-10"/>
      <point x="679" y="95"/>
      <point x="679" y="251" type="curve" smooth="yes"/>
      <point x="679" y="395"/>
      <point x="558" y="477"/>
      <point x="344" y="478" type="curve" smooth="yes"/>
      <point x="149" y="479"/>
      <point x="40" y="421"/>
      <point x="40" y="311" type="curve" smooth="yes"/>
      <point x="40" y="209"/>
      <point x="153" y="155"/>
      <point x="317" y="155" type="curve" smooth="yes"/>
      <point x="449" y="155"/>
      <point x="550" y="187"/>
      <point x="621" y="221" type="curve"/>
      <point x="617" y="293" type="line"/>
      <point x="539" y="265"/>
      <point x="440" y="251"/>
      <point x="329" y="252" type="curve" smooth="yes"/>
      <point x="219" y="253"/>
      <point x="156" y="276"/>
      <point x="155" y="317" type="curve" smooth="yes"/>
      <point x="155" y="358"/>
      <point x="223" y="381"/>
      <point x="344" y="381" type="curve" smooth="yes"/>
      <point x="485" y="381"/>
      <point x="566" y="334"/>
      <point x="566" y="251" type="curve" smooth="yes"/>
      <point x="566" y="149"/>
      <point x="452" y="86"/>
      <point x="306" y="86" type="curve" smooth="yes"/>
      <point x="225" y="86"/>
      <point x="165" y="98"/>
      <point x="114" y="111" type="curve"/>
      <point x="82" y="20" type="line"/>
      <point x="137" y="4"/>
      <point x="199" y="-10"/>
      <point x="312" y="-10" type="curve" smooth="yes"/>
    </contour>
  </outline>
</glyph>
<glyph name="semicolon" format="1">
  <advance width="299"/>
  <unicode hex="003B"/>
  <outline>
    <contour>
      <point x="173" y="-110"/>
      <point x="237" y="-51"/>
      <point x="237" y="4" type="curve" smooth="yes"/>
      <point x="237" y="59"/>
      <point x="204" y="90"/>
      <point x="149" y="90" type="curve" smooth="yes"/>
      <point x="97" y="90"/>
      <point x="62" y="69"/>
      <point x="62" y="34" type="curve" smooth="yes"/>
      <point x="62" y="3"/>
      <point x="90" y="-20"/>
      <point x="133" y="-20" type="curve" smooth="yes"/>
      <point x="148" y="-20"/>
      <point x="167" y="-18"/>
      <point x="176" y="-15" type="curve"/>
      <point x="172" y="-53"/>
      <point x="124" y="-92"/>
      <point x="82" y="-130" type="curve"/>
      <point x="111" y="-159" type="line"/>
    </contour>
    <contour>
      <point x="204" y="235"/>
      <point x="237" y="262"/>
      <point x="237" y="299" type="curve"/>
      <point x="237" y="339"/>
      <point x="204" y="365"/>
      <point x="150" y="365" type="curve"/>
      <point x="98" y="365"/>
      <point x="62" y="339"/>
      <point x="62" y="299" type="curve"/>
      <point x="62" y="262"/>
      <point x="98" y="235"/>
      <point x="150" y="235" type="curve"/>
    </contour>
  </outline>
</glyph>
<glyph name="less" format="1">
  <advance width="598"/>
  <unicode hex="003C"/>
  <outline>
    <contour>
      <point x="531" y="350" type="line"/>
      <point x="531" y="461" type="line"/>
      <point x="28" y="247" type="line"/>
      <point x="28" y="223" type="line"/>
      <point x="110" y="193" type="line"/>
    </contour>
    <contour>
      <point x="531" y="122" type="line"/>
      <point x="110" y="278" type="line"/>
      <point x="28" y="247" type="line"/>
      <point x="28" y="223" type="line"/>
      <point x="531" y="11" type="line"/>
    </contour>
  </outline>
</glyph>
<glyph name="equal" format="1">
  <advance width="723"/>
  <unicode hex="003D"/>
  <outline>
    <contour>
      <point x="76" y="384" type="line"/>
      <point x="76" y="287" type="line"/>
      <point x="646" y="287" type="line"/>
      <point x="646" y="384" type="line"/>
    </contour>
    <contour>
      <point x="76" y="183" type="line"/>
      <point x="76" y="86" type="line"/>
      <point x="646" y="86" type="line"/>
      <point x="646" y="183" type="line"/>
    </contour>
  </outline>
</glyph>
<glyph name="greater" format="1">
  <advance width="598"/>
  <unicode hex="003E"/>
  <outline>
    <contour>
      <point x="571" y="248" type="line"/>
      <point x="489" y="278" type="line"/>
      <point x="68" y="121" type="line"/>
      <point x="68" y="10" type="line"/>
      <point x="571" y="224" type="line"/>
    </contour>
    <contour>
      <point x="571" y="248" type="line"/>
      <point x="68" y="460" type="line"/>
      <point x="68" y="349" type="line"/>
      <point x="489" y="193" type="line"/>
      <point x="571" y="224" type="line"/>
    </contour>
  </outline>
</glyph>
<glyph name="F" format="1">
  <advance width="931"/>
  <unicode hex="0046"/>
  <outline>
    <contour>
      <point x="881" y="310" type="line"/>
      <point x="881" y="520" type="line"/>
      <point x="51" y="520" type="line"/>
      <point x="51" y="424" type="line"/>
      <point x="774" y="424" type="line"/>
      <point x="774" y="310" type="line"/>
    </contour>
    <contour>
      <point x="490" y="0" type="line"/>
      <point x="490" y="96" type="line"/>
      <point x="51" y="96" type="line"/>
      <point x="51" y="0" type="line"/>
    </contour>
    <contour>
      <point x="327" y="53" type="line"/>
      <point x="327" y="464" type="line"/>
      <point x="205" y="464" type="line"/>
      <point x="205" y="53" type="line"/>
    </contour>
    <contour>
      <point x="588" y="207" type="line"/>
      <point x="588" y="297" type="line"/>
      <point x="249" y="297" type="line"/>
      <point x="249" y="207" type="line"/>
    </contour>
    <contour>
      <point x="627" y="143" type="line"/>
      <point x="627" y="360" type="line"/>
      <point x="532" y="360" type="line"/>
      <point x="532" y="143" type="line"/>
    </contour>
    <contour>
      <point x="474" y="527" type="move" name="top"/>
    </contour>
    <contour>
      <point x="474" y="0" type="move" name="bottom"/>
    </contour>
  </outline>
</glyph>
<glyph name="H" format="1">
  <advance width="1130"/>
  <unicode hex="0048"/>
  <outline>
    <contour>
      <point x="888" y="221" type="line"/>
      <point x="888" y="311" type="line"/>
      <point x="244" y="311" type="line"/>
      <point x="244" y="221" type="line"/>
    </contour>
    <contour>
      <point x="482" y="0" type="line"/>
      <point x="482" y="96" type="line"/>
      <point x="51" y="96" type="line"/>
      <point x="51" y="0" type="line"/>
    </contour>
    <contour>
      <point x="329" y="51" type="line"/>
      <point x="329" y="462" type="line"/>
      <point x="205" y="462" type="line"/>
      <point x="205" y="51" type="line"/>
    </contour>
    <contour>
      <point x="482" y="424" type="line"/>
      <point x="482" y="520" type="line"/>
      <point x="51" y="520" type="line"/>
      <point x="51" y="424" type="line"/>
    </contour>
    <contour>
      <point x="1079" y="0" type="line"/>
      <point x="1079" y="96" type="line"/>
      <point x="650" y="96" type="line"/>
      <point x="650" y="0" type="line"/>
    </contour>
    <contour>
      <point x="926" y="56" type="line"/>
      <point x="926" y="467" type="line"/>
      <point x="803" y="467" type="line"/>
      <point x="803" y="56" type="line"/>
    </contour>
    <contour>
      <point x="1079" y="424" type="line"/>
      <point x="1079" y="520" type="line"/>
      <point x="650" y="520" type="line"/>
      <point x="650" y="424" type="line"/>
    </contour>
    <contour>
      <point x="564" y="277" type="move" name="center"/>
    </contour>
    <contour>
      <point x="564" y="0" type="move" name="bottom"/>
    </contour>
    <contour>
      <point x="564" y="557" type="move" name="top"/>
    </contour>
  </outline>
</glyph>
<glyph name="K" format="1">
  <advance width="979"/>
  <unicode hex="004B"/>
  <outline>
    <contour>
      <point x="843" y="442" type="line"/>
      <point x="695" y="442" type="line"/>
      <point x="256" y="180" type="line"/>
      <point x="257" y="77" type="line"/>
    </contour>
    <contour>
      <point x="474" y="0" type="line" smooth="yes"/>
      <point x="474" y="96" type="line" smooth="yes"/>
      <point x="51" y="96" type="line" smooth="yes"/>
      <point x="51" y="0" type="line" smooth="yes"/>
    </contour>
    <contour>
      <point x="327" y="53" type="line" smooth="yes"/>
      <point x="327" y="464" type="line" smooth="yes"/>
      <point x="205" y="464" type="line" smooth="yes"/>
      <point x="205" y="53" type="line" smooth="yes"/>
    </contour>
    <contour>
      <point x="964" y="0" type="line" smooth="yes"/>
      <point x="964" y="96" type="line" smooth="yes"/>
      <point x="572" y="96" type="line" smooth="yes"/>
      <point x="572" y="0" type="line" smooth="yes"/>
    </contour>
    <contour>
      <point x="897" y="72" type="line"/>
      <point x="535" y="333" type="line"/>
      <point x="425" y="271" type="line"/>
      <point x="711" y="72" type="line"/>
    </contour>
    <contour>
      <point x="474" y="424" type="line" smooth="yes"/>
      <point x="474" y="520" type="line" smooth="yes"/>
      <point x="51" y="520" type="line" smooth="yes"/>
      <point x="51" y="424" type="line" smooth="yes"/>
    </contour>
    <contour>
      <point x="942" y="424" type="line" smooth="yes"/>
      <point x="942" y="520" type="line" smooth="yes"/>
      <point x="550" y="520" type="line" smooth="yes"/>
      <point x="550" y="424" type="line" smooth="yes"/>
    </contour>
    <contour>
      <point x="538" y="520" type="move" name="top"/>
    </contour>
    <contour>
      <point x="538" y="0" type="move" name="bottom"/>
    </contour>
  </outline>
</glyph>
<glyph name="L" format="1">
  <advance width="855"/>
  <unicode hex="004C"/>
  <outline>
    <contour>
      <point x="801" y="0" type="line"/>
      <point x="801" y="226" type="line"/>
      <point x="684" y="226" type="line"/>
      <point x="684" y="96" type="line"/>
      <point x="51" y="96" type="line"/>
      <point x="51" y="0" type="line"/>
    </contour>
    <contour>
      <point x="327" y="53" type="line"/>
      <point x="327" y="458" type="line"/>
      <point x="205" y="458" type="line"/>
      <point x="205" y="53" type="line"/>
    </contour>
    <contour>
      <point x="480" y="424" type="line"/>
      <point x="480" y="520" type="line"/>
      <point x="51" y="520" type="line"/>
      <point x="51" y="424" type="line"/>
    </contour>
    <contour>
      <point x="468" y="0" type="move" name="bottom"/>
    </contour>
    <contour>
      <point x="468" y="557" type="move" name="top"/>
    </contour>
    <contour>
      <point x="848" y="490" type="move" name="topright"/>
    </contour>
    <contour>
      <point x="468" y="245" type="move" name="center"/>
    </contour>
  </outline>
</glyph>
<glyph name="S" format="1">
  <advance width="850"/>
  <unicode hex="0053"/>
  <outline>
    <contour>
      <point x="683" y="-10"/>
      <point x="795" y="35"/>
      <point x="795" y="143" type="curve" smooth="yes"/>
      <point x="795" y="256"/>
      <point x="645" y="293"/>
      <point x="464" y="311" type="curve" smooth="yes"/>
      <point x="263" y="331"/>
      <point x="225" y="340"/>
      <point x="225" y="377" type="curve" smooth="yes"/>
      <point x="225" y="417"/>
      <point x="299" y="434"/>
      <point x="396" y="434" type="curve" smooth="yes"/>
      <point x="539" y="434"/>
      <point x="634" y="380"/>
      <point x="686" y="315" type="curve"/>
      <point x="758" y="320" type="line"/>
      <point x="758" y="520" type="line"/>
      <point x="649" y="520" type="line"/>
      <point x="649" y="394" type="line"/>
      <point x="705" y="385" type="line"/>
      <point x="647" y="462"/>
      <point x="556" y="530"/>
      <point x="367" y="530" type="curve" smooth="yes"/>
      <point x="219" y="530"/>
      <point x="97" y="473"/>
      <point x="97" y="363" type="curve" smooth="yes"/>
      <point x="97" y="276"/>
      <point x="185" y="228"/>
      <point x="371" y="212" type="curve" smooth="yes"/>
      <point x="598" y="192"/>
      <point x="667" y="175"/>
      <point x="667" y="128" type="curve" smooth="yes"/>
      <point x="667" y="89"/>
      <point x="608" y="84"/>
      <point x="537" y="84" type="curve" smooth="yes"/>
      <point x="420" y="84"/>
      <point x="253" y="138"/>
      <point x="171" y="212" type="curve"/>
      <point x="95" y="207" type="line"/>
      <point x="95" y="1" type="line"/>
      <point x="205" y="1" type="line"/>
      <point x="205" y="123" type="line"/>
      <point x="140" y="129" type="line"/>
      <point x="231" y="70"/>
      <point x="369" y="-10"/>
      <point x="544" y="-10" type="curve" smooth="yes"/>
    </contour>
    <contour>
      <point x="443" y="530" type="move" name="top"/>
    </contour>
    <contour>
      <point x="463" y="-10" type="move" name="bottom"/>
    </contour>
  </outline>
</glyph>
<glyph name="X" format="1">
  <advance width="951"/>
  <unicode hex="0058"/>
  <outline>
    <contour>
      <point x="909" y="0" type="line"/>
      <point x="909" y="96" type="line"/>
      <point x="753" y="96" type="line"/>
      <point x="685" y="96" type="line"/>
      <point x="530" y="96" type="line"/>
      <point x="530" y="0" type="line"/>
    </contour>
    <contour>
      <point x="401" y="0" type="line"/>
      <point x="401" y="96" type="line"/>
      <point x="238" y="96" type="line"/>
      <point x="187" y="96" type="line"/>
      <point x="42" y="96" type="line"/>
      <point x="42" y="0" type="line"/>
    </contour>
    <contour>
      <point x="835" y="79" type="line"/>
      <point x="535" y="290" type="line"/>
      <point x="523" y="290" type="line"/>
      <point x="306" y="442" type="line"/>
      <point x="119" y="442" type="line"/>
      <point x="423" y="231" type="line"/>
      <point x="436" y="231" type="line"/>
      <point x="653" y="79" type="line"/>
    </contour>
    <contour>
      <point x="269" y="79" type="line"/>
      <point x="497" y="240" type="line"/>
      <point x="514" y="233" type="line"/>
      <point x="812" y="442" type="line"/>
      <point x="672" y="442" type="line"/>
      <point x="454" y="296" type="line"/>
      <point x="436" y="304" type="line"/>
      <point x="128" y="79" type="line"/>
    </contour>
    <contour>
      <point x="203" y="424" type="line"/>
      <point x="268" y="424" type="line"/>
      <point x="422" y="424" type="line"/>
      <point x="422" y="520" type="line" smooth="yes"/>
      <point x="42" y="520" type="line"/>
      <point x="42" y="424" type="line"/>
    </contour>
    <contour>
      <point x="695" y="424" type="line"/>
      <point x="740" y="424" type="line"/>
      <point x="909" y="424" type="line"/>
      <point x="909" y="520" type="line"/>
      <point x="549" y="520" type="line" smooth="yes"/>
      <point x="549" y="424" type="line"/>
    </contour>
    <contour>
      <point x="472" y="490" type="move" name="top"/>
    </contour>
    <contour>
      <point x="472" y="0" type="move" name="bottom"/>
    </contour>
  </outline>
</glyph>
<glyph name="backslash" format="1">
  <advance width="549"/>
  <unicode hex="005C"/>
  <outline>
    <contour>
      <point x="532" y="-79" type="line"/>
      <point x="140" y="561" type="line"/>
      <point x="35" y="561" type="line"/>
      <point x="427" y="-79" type="line"/>
    </contour>
  </outline>
</glyph>
<glyph name="a" format="1">
  <advance width="809"/>
  <unicode hex="0061"/>
  <outline>
    <contour>
      <point x="752" y="-9"/>
      <point x="778" y="3"/>
      <point x="799" y="17" type="curve"/>
      <point x="772" y="96" type="line"/>
      <point x="760" y="89"/>
      <point x="750" y="86"/>
      <point x="735" y="86" type="curve" smooth="yes"/>
      <point x="715" y="86"/>
      <point x="696" y="98"/>
      <point x="696" y="129" type="curve" smooth="yes"/>
      <point x="696" y="174" type="line" smooth="yes"/>
      <point x="696" y="294"/>
      <point x="597" y="369"/>
      <point x="427" y="369" type="curve" smooth="yes"/>
      <point x="307" y="369"/>
      <point x="206" y="354"/>
      <point x="93" y="329" type="curve"/>
      <point x="111" y="244" type="line"/>
      <point x="221" y="265"/>
      <point x="293" y="275"/>
      <point x="403" y="275" type="curve" smooth="yes"/>
      <point x="519" y="275"/>
      <point x="586" y="239"/>
      <point x="586" y="169" type="curve" smooth="yes"/>
      <point x="586" y="118" type="line" smooth="yes"/>
      <point x="586" y="34"/>
      <point x="642" y="-9"/>
      <point x="705" y="-9" type="curve" smooth="yes"/>
    </contour>
    <contour>
      <point x="387" y="-9"/>
      <point x="526" y="29"/>
      <point x="618" y="73" type="curve"/>
      <point x="620" y="126" type="line"/>
      <point x="526" y="98"/>
      <point x="375" y="80"/>
      <point x="299" y="80" type="curve" smooth="yes"/>
      <point x="229" y="80"/>
      <point x="199" y="91"/>
      <point x="199" y="116" type="curve" smooth="yes"/>
      <point x="199" y="143"/>
      <point x="240" y="155"/>
      <point x="320" y="155" type="curve" smooth="yes"/>
      <point x="416" y="155"/>
      <point x="516" y="145"/>
      <point x="620" y="130" type="curve"/>
      <point x="620" y="185" type="line"/>
      <point x="535" y="207"/>
      <point x="414" y="229"/>
      <point x="299" y="229" type="curve" smooth="yes"/>
      <point x="163" y="229"/>
      <point x="71" y="196"/>
      <point x="71" y="108" type="curve" smooth="yes"/>
      <point x="71" y="25"/>
      <point x="156" y="-8"/>
      <point x="268" y="-8" type="curve" smooth="yes"/>
    </contour>
    <contour>
      <point x="799" y="17" type="move" name="ogonek"/>
    </contour>
    <contour>
      <point x="265" y="-10" type="move" name="bottom"/>
    </contour>
    <contour>
      <point x="415" y="367" type="move" name="top"/>
    </contour>
  </outline>
</glyph>
<glyph name="d" format="1">
  <advance width="881"/>
  <unicode hex="0064"/>
  <outline>
    <contour>
      <point x="453" y="-12"/>
      <point x="575" y="60"/>
      <point x="692" y="138" type="curve"/>
      <point x="692" y="217" type="line"/>
      <point x="564" y="134"/>
      <point x="423" y="85"/>
      <point x="319" y="85" type="curve" smooth="yes"/>
      <point x="223" y="85"/>
      <point x="170" y="117"/>
      <point x="170" y="173" type="curve" smooth="yes"/>
      <point x="170" y="230"/>
      <point x="239" y="271"/>
      <point x="351" y="271" type="curve" smooth="yes"/>
      <point x="466" y="271"/>
      <point x="600" y="247"/>
      <point x="686" y="210" type="curve"/>
      <point x="686" y="286" type="line"/>
      <point x="606" y="322"/>
      <point x="486" y="366"/>
      <point x="335" y="366" type="curve" smooth="yes"/>
      <point x="180" y="366"/>
      <point x="50" y="291"/>
      <point x="50" y="167" type="curve" smooth="yes"/>
      <point x="50" y="49"/>
      <point x="155" y="-12"/>
      <point x="298" y="-12" type="curve" smooth="yes"/>
    </contour>
    <contour>
      <point x="799" y="-9"/>
      <point x="825" y="3"/>
      <point x="846" y="17" type="curve"/>
      <point x="819" y="96" type="line"/>
      <point x="809" y="91"/>
      <point x="797" y="86"/>
      <point x="782" y="86" type="curve" smooth="yes"/>
      <point x="762" y="86"/>
      <point x="743" y="98"/>
      <point x="743" y="139" type="curve" smooth="yes"/>
      <point x="743" y="520" type="line"/>
      <point x="626" y="520" type="line"/>
      <point x="626" y="118" type="line" smooth="yes"/>
      <point x="626" y="34"/>
      <point x="682" y="-9"/>
      <point x="752" y="-9" type="curve" smooth="yes"/>
    </contour>
    <contour>
      <point x="722" y="430" type="line"/>
      <point x="722" y="520" type="line"/>
      <point x="496" y="520" type="line"/>
      <point x="496" y="430" type="line"/>
    </contour>
    <contour>
      <point x="372" y="2" type="move" name="bottom"/>
    </contour>
    <contour>
      <point x="372" y="355" type="move" name="top"/>
    </contour>
    <contour>
      <point x="806" y="357" type="move" name="topright"/>
    </contour>
    <contour>
      <point x="396" y="179" type="move" name="center"/>
    </contour>
  </outline>
</glyph>
<glyph name="f" format="1">
  <advance width="604"/>
  <unicode hex="0066"/>
  <outline>
    <contour>
      <point x="309" y="50" type="line"/>
      <point x="309" y="373" type="line"/>
      <point x="309" y="407"/>
      <point x="330" y="454"/>
      <point x="420" y="454" type="curve" smooth="yes"/>
      <point x="478" y="454"/>
      <point x="534" y="437"/>
      <point x="599" y="407" type="curve"/>
      <point x="638" y="501" type="line"/>
      <point x="561" y="533"/>
      <point x="491" y="555"/>
      <point x="407" y="555" type="curve" smooth="yes"/>
      <point x="262" y="555"/>
      <point x="196" y="473"/>
      <point x="196" y="371" type="curve"/>
      <point x="196" y="50" type="line"/>
    </contour>
    <contour>
      <point x="460" y="0" type="line"/>
      <point x="460" y="90" type="line"/>
      <point x="66" y="90" type="line"/>
      <point x="66" y="0" type="line"/>
    </contour>
    <contour>
      <point x="497" y="267" type="line"/>
      <point x="497" y="357" type="line"/>
      <point x="66" y="357" type="line"/>
      <point x="66" y="267" type="line"/>
    </contour>
  </outline>
</glyph>
<glyph name="l" format="1">
  <advance width="459"/>
  <unicode hex="006C"/>
  <outline>
    <contour>
      <point x="285" y="30" type="line"/>
      <point x="285" y="520" type="line"/>
      <point x="170" y="520" type="line"/>
      <point x="170" y="30" type="line"/>
    </contour>
    <contour>
      <point x="415" y="0" type="line"/>
      <point x="415" y="90" type="line"/>
      <point x="30" y="90" type="line"/>
      <point x="30" y="0" type="line"/>
    </contour>
    <contour>
      <point x="277" y="430" type="line"/>
      <point x="277" y="520" type="line"/>
      <point x="30" y="520" type="line"/>
      <point x="30" y="430" type="line"/>
    </contour>
    <contour>
      <point x="215" y="0" type="move" name="bottom"/>
    </contour>
    <contour>
      <point x="215" y="471" type="move" name="top"/>
    </contour>
    <contour>
      <point x="384" y="357" type="move" name="topright"/>
    </contour>
    <contour>
      <point x="215" y="283" type="move" name="center"/>
    </contour>
  </outline>
</glyph>
<glyph name="w" format="1">
  <advance width="1035"/>
  <unicode hex="0077"/>
  <outline>
    <contour>
      <point x="367" y="-11" type="line"/>
      <point x="632" y="325" type="line"/>
      <point x="533" y="325" type="line"/>
      <point x="360" y="87" type="line"/>
      <point x="215" y="303" type="line"/>
      <point x="85" y="303" type="line"/>
      <point x="304" y="-11" type="line"/>
    </contour>
    <contour>
      <point x="720" y="-11" type="line"/>
      <point x="941" y="298" type="line"/>
      <point x="845" y="298" type="line"/>
      <point x="707" y="87" type="line"/>
      <point x="550" y="294" type="line"/>
      <point x="412" y="294" type="line"/>
      <point x="656" y="-11" type="line"/>
    </contour>
    <contour>
      <point x="173" y="267" type="line"/>
      <point x="173" y="277" type="line"/>
      <point x="302" y="277" type="line"/>
      <point x="302" y="357" type="line"/>
      <point x="16" y="357" type="line"/>
      <point x="16" y="267" type="line"/>
    </contour>
    <contour>
      <point x="500" y="278" type="line"/>
      <point x="557" y="278" type="line"/>
      <point x="643" y="278" type="line"/>
      <point x="643" y="357" type="line"/>
      <point x="412" y="357" type="line"/>
      <point x="412" y="278" type="line"/>
    </contour>
    <contour>
      <point x="860" y="277" type="line"/>
      <point x="860" y="267" type="line"/>
      <point x="1019" y="267" type="line"/>
      <point x="1019" y="357" type="line"/>
      <point x="761" y="357" type="line"/>
      <point x="761" y="277" type="line"/>
    </contour>
    <contour>
      <point x="528" y="357" type="move" name="top"/>
    </contour>
    <contour>
      <point x="513" y="0" type="move" name="bottom"/>
    </contour>
  </outline>
</glyph>
<glyph name="x" format="1">
  <advance width="818"/>
  <unicode hex="0078"/>
  <outline>
    <contour>
      <point x="229" y="65" type="line"/>
      <point x="422" y="153" type="line"/>
      <point x="434" y="153" type="line"/>
      <point x="706" y="291" type="line"/>
      <point x="588" y="291" type="line"/>
      <point x="394" y="205" type="line"/>
      <point x="382" y="205" type="line"/>
      <point x="111" y="65" type="line"/>
    </contour>
    <contour>
      <point x="348" y="-1" type="line"/>
      <point x="348" y="79" type="line"/>
      <point x="182" y="79" type="line"/>
      <point x="182" y="89" type="line"/>
      <point x="59" y="89" type="line"/>
      <point x="59" y="-1" type="line"/>
    </contour>
    <contour>
      <point x="758" y="-1" type="line"/>
      <point x="758" y="89" type="line"/>
      <point x="630" y="89" type="line"/>
      <point x="628" y="79" type="line"/>
      <point x="425" y="79" type="line"/>
      <point x="425" y="-1" type="line"/>
    </contour>
    <contour>
      <point x="704" y="66" type="line"/>
      <point x="457" y="202" type="line"/>
      <point x="455" y="202" type="line"/>
      <point x="274" y="290" type="line"/>
      <point x="113" y="290" type="line"/>
      <point x="359" y="155" type="line"/>
      <point x="361" y="155" type="line"/>
      <point x="543" y="66" type="line"/>
    </contour>
    <contour>
      <point x="188" y="267" type="line"/>
      <point x="188" y="277" type="line"/>
      <point x="393" y="277" type="line"/>
      <point x="393" y="357" type="line"/>
      <point x="59" y="357" type="line"/>
      <point x="59" y="267" type="line"/>
    </contour>
    <contour>
      <point x="637" y="277" type="line"/>
      <point x="634" y="267" type="line"/>
      <point x="758" y="267" type="line"/>
      <point x="758" y="357" type="line"/>
      <point x="470" y="357" type="line"/>
      <point x="470" y="277" type="line"/>
    </contour>
    <contour>
      <point x="410" y="357" type="move" name="top"/>
    </contour>
    <contour>
      <point x="410" y="0" type="move" name="bottom"/>
    </contour>
  </outline>
</glyph>
<glyph name="braceleft" format="1">
  <advance width="512"/>
  <unicode hex="007B"/>
  <outline>
    <contour>
      <point x="405" y="-155"/>
      <point x="466" y="-139"/>
      <point x="512" y="-126" type="curve"/>
      <point x="480" y="-37" type="line"/>
      <point x="444" y="-47"/>
      <point x="397" y="-58"/>
      <point x="350" y="-58" type="curve" smooth="yes"/>
      <point x="287" y="-58"/>
      <point x="217" y="-43"/>
      <point x="217" y="2" type="curve" smooth="yes"/>
      <point x="217" y="64"/>
      <point x="382" y="54"/>
      <point x="382" y="153" type="curve" smooth="yes"/>
      <point x="382" y="229"/>
      <point x="292" y="260"/>
      <point x="192" y="260" type="curve"/>
      <point x="192" y="250" type="line"/>
      <point x="292" y="250"/>
      <point x="382" y="281"/>
      <point x="382" y="357" type="curve" smooth="yes"/>
      <point x="382" y="456"/>
      <point x="217" y="446"/>
      <point x="217" y="508" type="curve" smooth="yes"/>
      <point x="217" y="553"/>
      <point x="287" y="568"/>
      <point x="350" y="568" type="curve" smooth="yes"/>
      <point x="397" y="568"/>
      <point x="444" y="555"/>
      <point x="480" y="547" type="curve"/>
      <point x="512" y="636" type="line"/>
      <point x="466" y="648"/>
      <point x="405" y="665"/>
      <point x="325" y="665" type="curve" smooth="yes"/>
      <point x="207" y="665"/>
      <point x="106" y="611"/>
      <point x="106" y="518" type="curve" smooth="yes"/>
      <point x="106" y="403"/>
      <point x="279" y="392"/>
      <point x="279" y="346" type="curve" smooth="yes"/>
      <point x="279" y="304"/>
      <point x="233" y="297"/>
      <point x="153" y="297" type="curve" smooth="yes"/>
      <point x="85" y="297" type="line"/>
      <point x="85" y="213" type="line"/>
      <point x="153" y="213" type="line" smooth="yes"/>
      <point x="233" y="215"/>
      <point x="279" y="206"/>
      <point x="279" y="164" type="curve" smooth="yes"/>
      <point x="279" y="116"/>
      <point x="106" y="108"/>
      <point x="106" y="-8" type="curve" smooth="yes"/>
      <point x="106" y="-101"/>
      <point x="207" y="-155"/>
      <point x="325" y="-155" type="curve" smooth="yes"/>
    </contour>
  </outline>
</glyph>
<glyph name="yen" format="1">
  <advance width="909"/>
  <unicode hex="00A5"/>
  <outline>
    <contour>
      <point x="370" y="374" type="line"/>
      <point x="370" y="470" type="line"/>
      <point x="40" y="470" type="line"/>
      <point x="40" y="374" type="line"/>
    </contour>
    <contour>
      <point x="869" y="374" type="line"/>
      <point x="869" y="470" type="line"/>
      <point x="545" y="470" type="line"/>
      <point x="545" y="374" type="line"/>
    </contour>
    <contour>
      <point x="483" y="156" type="line"/>
      <point x="784" y="407" type="line"/>
      <point x="664" y="407" type="line"/>
      <point x="431" y="215" type="line"/>
      <point x="496" y="216" type="line"/>
      <point x="254" y="404" type="line"/>
      <point x="113" y="404" type="line"/>
      <point x="426" y="156" type="line"/>
    </contour>
    <contour>
      <point x="361" y="241" type="line"/>
      <point x="361" y="299" type="line"/>
      <point x="80" y="299" type="line"/>
      <point x="80" y="241" type="line"/>
    </contour>
    <contour>
      <point x="829" y="241" type="line"/>
      <point x="829" y="299" type="line"/>
      <point x="542" y="299" type="line"/>
      <point x="542" y="241" type="line"/>
    </contour>
    <contour>
      <point x="829" y="162" type="line"/>
      <point x="829" y="221" type="line"/>
      <point x="80" y="221" type="line"/>
      <point x="80" y="162" type="line"/>
    </contour>
    <contour>
      <point x="514" y="30" type="line"/>
      <point x="514" y="232" type="line"/>
      <point x="397" y="232" type="line"/>
      <point x="397" y="30" type="line"/>
    </contour>
    <contour>
      <point x="674" y="0" type="line"/>
      <point x="674" y="96" type="line"/>
      <point x="237" y="96" type="line"/>
      <point x="237" y="0" type="line"/>
    </contour>
  </outline>
</glyph>
<glyph name="brokenbar" format="1">
  <advance width="323"/>
  <unicode hex="00A6"/>
  <outline>
    <contour>
      <point x="107" y="304" type="line"/>
      <point x="216" y="304" type="line"/>
      <point x="216" y="634" type="line"/>
      <point x="107" y="634" type="line"/>
    </contour>
    <contour>
      <point x="107" y="-146" type="line"/>
      <point x="216" y="-146" type="line"/>
      <point x="216" y="184" type="line"/>
      <point x="107" y="184" type="line"/>
    </contour>
  </outline>
</glyph>
<glyph name="ordfeminine" format="1">
  <advance width="512"/>
  <unicode hex="00AA"/>
  <outline>
    <contour>
      <point x="463" y="318"/>
      <point x="487" y="349"/>
      <point x="487" y="391" type="curve" smooth="yes"/>
      <point x="487" y="423" type="line"/>
      <point x="455" y="423" type="line"/>
      <point x="455" y="391" type="line" smooth="yes"/>
      <point x="455" y="373"/>
      <point x="450" y="358"/>
      <point x="434" y="358" type="curve" smooth="yes"/>
      <point x="413" y="358"/>
      <point x="410" y="378"/>
      <point x="410" y="397" type="curve" smooth="yes"/>
      <point x="410" y="412" type="line" smooth="yes"/>
      <point x="410" y="482"/>
      <point x="362" y="529"/>
      <point x="262" y="529" type="curve" smooth="yes"/>
      <point x="195" y="529"/>
      <point x="137" y="517"/>
      <point x="66" y="496" type="curve"/>
      <point x="80" y="448" type="line"/>
      <point x="142" y="463"/>
      <point x="194" y="474"/>
      <point x="253" y="474" type="curve" smooth="yes"/>
      <point x="312" y="474"/>
      <point x="347" y="453"/>
      <point x="347" y="414" type="curve" smooth="yes"/>
      <point x="347" y="397" type="line" smooth="yes"/>
      <point x="347" y="352"/>
      <point x="371" y="318"/>
      <point x="421" y="318" type="curve" smooth="yes"/>
    </contour>
    <contour>
      <point x="237" y="315"/>
      <point x="300" y="333"/>
      <point x="362" y="355" type="curve"/>
      <point x="363" y="393" type="line"/>
      <point x="298" y="372"/>
      <point x="239" y="365"/>
      <point x="188" y="365" type="curve" smooth="yes"/>
      <point x="145" y="365"/>
      <point x="127" y="367"/>
      <point x="127" y="379" type="curve" smooth="yes"/>
      <point x="127" y="393"/>
      <point x="162" y="396"/>
      <point x="212" y="396" type="curve" smooth="yes"/>
      <point x="259" y="396"/>
      <point x="314" y="392"/>
      <point x="363" y="390" type="curve"/>
      <point x="363" y="425" type="line"/>
      <point x="314" y="429"/>
      <point x="254" y="437"/>
      <point x="190" y="437" type="curve" smooth="yes"/>
      <point x="115" y="437"/>
      <point x="55" y="418"/>
      <point x="55" y="374" type="curve" smooth="yes"/>
      <point x="55" y="335"/>
      <point x="94" y="315"/>
      <point x="170" y="315" type="curve" smooth="yes"/>
    </contour>
    <contour>
      <point x="57" y="212" type="line"/>
      <point x="467" y="212" type="line"/>
      <point x="467" y="260" type="line"/>
      <point x="57" y="260" type="line"/>
    </contour>
  </outline>
</glyph>
<glyph name="logicalnot" format="1">
  <advance width="631"/>
  <unicode hex="00AC"/>
  <outline>
    <contour>
      <point x="549" y="262" type="line"/>
      <point x="549" y="358" type="line"/>
      <point x="45" y="358" type="line"/>
      <point x="45" y="262" type="line"/>
    </contour>
    <contour>
      <point x="579" y="46" type="line"/>
      <point x="579" y="358" type="line"/>
      <point x="483" y="358" type="line"/>
      <point x="483" y="46" type="line"/>
    </contour>
  </outline>
</glyph>
<glyph name="registered" format="1">
  <advance width="954"/>
  <unicode hex="00AE"/>
  <outline>
    <contour>
      <point x="746" y="-175"/>
      <point x="906" y="-21"/>
      <point x="906" y="170" type="curve"/>
      <point x="906" y="361"/>
      <point x="746" y="515"/>
      <point x="477" y="515" type="curve"/>
      <point x="209" y="515"/>
      <point x="48" y="361"/>
      <point x="48" y="170" type="curve"/>
      <point x="48" y="-21"/>
      <point x="209" y="-175"/>
      <point x="477" y="-175" type="curve"/>
    </contour>
    <contour>
      <point x="475" y="28" type="line"/>
      <point x="475" y="90" type="line"/>
      <point x="218" y="89" type="line"/>
      <point x="218" y="27" type="line"/>
    </contour>
    <contour>
      <point x="380" y="61" type="line"/>
      <point x="380" y="270" type="line"/>
      <point x="300" y="270" type="line"/>
      <point x="300" y="61" type="line"/>
    </contour>
    <contour>
      <point x="727" y="6"/>
      <point x="778" y="53"/>
      <point x="778" y="129" type="curve" smooth="yes"/>
      <point x="778" y="144" type="line"/>
      <point x="702" y="144" type="line"/>
      <point x="702" y="129" type="line" smooth="yes"/>
      <point x="702" y="95"/>
      <point x="677" y="79"/>
      <point x="652" y="79" type="curve" smooth="yes"/>
      <point x="604" y="79"/>
      <point x="577" y="145"/>
      <point x="526" y="145" type="curve" smooth="yes"/>
      <point x="392" y="145" type="line"/>
      <point x="392" y="129" type="line"/>
      <point x="457" y="129" type="line" smooth="yes"/>
      <point x="507" y="129"/>
      <point x="561" y="6"/>
      <point x="656" y="6" type="curve" smooth="yes"/>
    </contour>
    <contour>
      <point x="244" y="-118"/>
      <point x="114" y="13"/>
      <point x="115" y="170" type="curve"/>
      <point x="114" y="327"/>
      <point x="244" y="458"/>
      <point x="477" y="458" type="curve"/>
      <point x="710" y="458"/>
      <point x="839" y="327"/>
      <point x="838" y="170" type="curve"/>
      <point x="839" y="13"/>
      <point x="710" y="-118"/>
      <point x="477" y="-118" type="curve"/>
    </contour>
    <contour>
      <point x="593" y="129" type="line" smooth="yes"/>
      <point x="674" y="129"/>
      <point x="710" y="174"/>
      <point x="710" y="217" type="curve" smooth="yes"/>
      <point x="710" y="268"/>
      <point x="673" y="304"/>
      <point x="593" y="304" type="curve" smooth="yes"/>
      <point x="218" y="304" type="line"/>
      <point x="218" y="239" type="line"/>
      <point x="593" y="239" type="line" smooth="yes"/>
      <point x="607" y="239"/>
      <point x="626" y="235"/>
      <point x="626" y="217" type="curve" smooth="yes"/>
      <point x="626" y="197"/>
      <point x="606" y="192"/>
      <point x="593" y="192" type="curve" smooth="yes"/>
      <point x="352" y="192" type="line"/>
      <point x="352" y="129" type="line"/>
    </contour>
  </outline>
</glyph>
<glyph name="plusminus" format="1">
  <advance width="637"/>
  <unicode hex="00B1"/>
  <outline>
    <contour>
      <point x="267" y="171" type="line"/>
      <point x="365" y="171" type="line"/>
      <point x="365" y="489" type="line"/>
      <point x="267" y="489" type="line"/>
    </contour>
    <contour>
      <point x="52" y="379" type="line"/>
      <point x="52" y="282" type="line"/>
      <point x="586" y="282" type="line"/>
      <point x="586" y="379" type="line"/>
    </contour>
    <contour>
      <point x="52" y="133" type="line"/>
      <point x="52" y="37" type="line"/>
      <point x="582" y="37" type="line"/>
      <point x="582" y="133" type="line"/>
    </contour>
  </outline>
</glyph>
<glyph name="uni00B5" format="1">
  <advance width="933"/>
  <unicode hex="00B5"/>
  <outline>
    <contour>
      <point x="553" y="-10"/>
      <point x="662" y="87"/>
      <point x="742" y="172" type="curve"/>
      <point x="742" y="262" type="line"/>
      <point x="680" y="194"/>
      <point x="569" y="98"/>
      <point x="447" y="98" type="curve" smooth="yes"/>
      <point x="332" y="98"/>
      <point x="306" y="165"/>
      <point x="306" y="231" type="curve" smooth="yes"/>
      <point x="306" y="357" type="line"/>
      <point x="241" y="357" type="line"/>
      <point x="241" y="196" type="line" smooth="yes"/>
      <point x="241" y="97"/>
      <point x="271" y="-10"/>
      <point x="419" y="-10" type="curve" smooth="yes"/>
    </contour>
    <contour>
      <point x="304" y="-165" type="line"/>
      <point x="304" y="-64" type="line" smooth="yes"/>
      <point x="304" y="-24"/>
      <point x="273" y="31"/>
      <point x="270" y="108" type="curve"/>
      <point x="270" y="357" type="line"/>
      <point x="191" y="357" type="line"/>
      <point x="191" y="-165" type="line"/>
    </contour>
    <contour>
      <point x="288" y="267" type="line"/>
      <point x="288" y="357" type="line"/>
      <point x="40" y="357" type="line"/>
      <point x="40" y="267" type="line"/>
    </contour>
    <contour>
      <point x="851" y="-9"/>
      <point x="877" y="3"/>
      <point x="898" y="17" type="curve"/>
      <point x="871" y="96" type="line"/>
      <point x="861" y="91"/>
      <point x="849" y="86"/>
      <point x="834" y="86" type="curve" smooth="yes"/>
      <point x="814" y="86"/>
      <point x="795" y="98"/>
      <point x="795" y="139" type="curve" smooth="yes"/>
      <point x="795" y="357" type="line"/>
      <point x="678" y="357" type="line"/>
      <point x="678" y="118" type="line" smooth="yes"/>
      <point x="678" y="34"/>
      <point x="734" y="-9"/>
      <point x="804" y="-9" type="curve" smooth="yes"/>
    </contour>
  </outline>
</glyph>
<glyph name="ordmasculine" format="1">
  <advance width="513"/>
  <unicode hex="00BA"/>
  <outline>
    <contour>
      <point x="372" y="304"/>
      <point x="463" y="345"/>
      <point x="463" y="415" type="curve" smooth="yes"/>
      <point x="463" y="488"/>
      <point x="367" y="528"/>
      <point x="256" y="526" type="curve" smooth="yes"/>
      <point x="143" y="527"/>
      <point x="50" y="488"/>
      <point x="50" y="415" type="curve" smooth="yes"/>
      <point x="50" y="345"/>
      <point x="143" y="304"/>
      <point x="256" y="304" type="curve" smooth="yes"/>
    </contour>
    <contour>
      <point x="178" y="360"/>
      <point x="124" y="376"/>
      <point x="124" y="415" type="curve" smooth="yes"/>
      <point x="124" y="457"/>
      <point x="178" y="471"/>
      <point x="256" y="471" type="curve" smooth="yes"/>
      <point x="333" y="471"/>
      <point x="388" y="457"/>
      <point x="388" y="415" type="curve" smooth="yes"/>
      <point x="388" y="376"/>
      <point x="333" y="360"/>
      <point x="256" y="360" type="curve" smooth="yes"/>
    </contour>
    <contour>
      <point x="70" y="212" type="line"/>
      <point x="453" y="212" type="line"/>
      <point x="453" y="260" type="line"/>
      <point x="70" y="260" type="line"/>
    </contour>
  </outline>
</glyph>
<glyph name="guillemotright" format="1">
  <advance width="891"/>
  <unicode hex="00BB"/>
  <outline>
    <contour>
      <point x="561" y="69"/>
      <point x="634" y="135"/>
      <point x="821" y="135" type="curve" smooth="yes"/>
      <point x="830" y="135" type="line"/>
      <point x="830" y="232" type="line"/>
      <point x="820" y="232" type="line" smooth="yes"/>
      <point x="632" y="232"/>
      <point x="560" y="298"/>
      <point x="508" y="388" type="curve"/>
      <point x="420" y="350" type="line"/>
      <point x="479" y="255"/>
      <point x="560" y="181"/>
      <point x="801" y="181" type="curve"/>
      <point x="801" y="187" type="line"/>
      <point x="561" y="187"/>
      <point x="481" y="112"/>
      <point x="421" y="17" type="curve"/>
      <point x="510" y="-21" type="line"/>
    </contour>
    <contour>
      <point x="206" y="64"/>
      <point x="284" y="135"/>
      <point x="441" y="135" type="curve" smooth="yes"/>
      <point x="440" y="135" type="line"/>
      <point x="440" y="232" type="line"/>
      <point x="440" y="232" type="line" smooth="yes"/>
      <point x="282" y="232"/>
      <point x="205" y="303"/>
      <point x="158" y="388" type="curve"/>
      <point x="70" y="350" type="line"/>
      <point x="124" y="260"/>
      <point x="210" y="181"/>
      <point x="421" y="181" type="curve"/>
      <point x="421" y="187" type="line"/>
      <point x="211" y="187"/>
      <point x="126" y="107"/>
      <point x="71" y="17" type="curve"/>
      <point x="160" y="-21" type="line"/>
    </contour>
  </outline>
</glyph>
<glyph name="AE" format="1">
  <advance width="1392"/>
  <unicode hex="00C6"/>
  <outline>
    <contour>
      <point x="223" y="13" type="line"/>
      <point x="621" y="464" type="line"/>
      <point x="555" y="464" type="line"/>
      <point x="778" y="13" type="line"/>
      <point x="901" y="13" type="line"/>
      <point x="674" y="461" type="line" smooth="yes"/>
      <point x="496" y="461" type="line"/>
      <point x="82" y="13" type="line"/>
    </contour>
    <contour>
      <point x="391" y="0" type="line"/>
      <point x="391" y="96" type="line"/>
      <point x="29" y="96" type="line"/>
      <point x="29" y="0" type="line"/>
    </contour>
    <contour>
      <point x="769" y="168" type="line"/>
      <point x="769" y="255" type="line"/>
      <point x="352" y="255" type="line"/>
      <point x="328" y="168" type="line"/>
    </contour>
    <contour>
      <point x="1292" y="0" type="line"/>
      <point x="1292" y="230" type="line"/>
      <point x="1184" y="230" type="line"/>
      <point x="1184" y="96" type="line"/>
      <point x="588" y="96" type="line"/>
      <point x="588" y="0" type="line"/>
    </contour>
    <contour>
      <point x="1033" y="131" type="line"/>
      <point x="1033" y="387" type="line"/>
      <point x="937" y="387" type="line"/>
      <point x="937" y="302" type="line"/>
      <point x="696" y="302" type="line"/>
      <point x="696" y="215" type="line"/>
      <point x="937" y="215" type="line"/>
      <point x="937" y="131" type="line"/>
    </contour>
    <contour>
      <point x="1292" y="294" type="line"/>
      <point x="1292" y="520" type="line"/>
      <point x="349" y="520" type="line"/>
      <point x="349" y="424" type="line"/>
      <point x="1184" y="424" type="line"/>
      <point x="1184" y="294" type="line"/>
    </contour>
    <contour>
      <point x="1244" y="0" type="move" name="ogonek"/>
    </contour>
    <contour>
      <point x="785" y="0" type="move" name="bottom"/>
    </contour>
    <contour>
      <point x="786" y="520" type="move" name="top"/>
    </contour>
  </outline>
</glyph>
<glyph name="Thorn" format="1">
  <advance width="888"/>
  <unicode hex="00DE"/>
  <outline>
    <contour>
      <point x="691" y="134" type="line" smooth="yes"/>
      <point x="785" y="135"/>
      <point x="853" y="180"/>
      <point x="853" y="261" type="curve" smooth="yes"/>
      <point x="853" y="344"/>
      <point x="785" y="385"/>
      <point x="691" y="385" type="curve" smooth="yes"/>
      <point x="291" y="385" type="line"/>
      <point x="291" y="301" type="line"/>
      <point x="664" y="301" type="line" smooth="yes"/>
      <point x="693" y="301"/>
      <point x="731" y="296"/>
      <point x="731" y="260" type="curve" smooth="yes"/>
      <point x="731" y="219"/>
      <point x="689" y="216"/>
      <point x="664" y="216" type="curve" smooth="yes"/>
      <point x="290" y="216" type="line"/>
      <point x="290" y="133" type="line"/>
    </contour>
    <contour>
      <point x="476" y="0" type="line"/>
      <point x="476" y="86" type="line"/>
      <point x="294" y="86" type="line"/>
      <point x="294" y="96" type="line"/>
      <point x="51" y="96" type="line"/>
      <point x="51" y="0" type="line"/>
    </contour>
    <contour>
      <point x="323" y="53" type="line"/>
      <point x="323" y="467" type="line"/>
      <point x="205" y="467" type="line"/>
      <point x="205" y="53" type="line"/>
    </contour>
    <contour>
      <point x="287" y="424" type="line"/>
      <point x="287" y="434" type="line"/>
      <point x="476" y="434" type="line"/>
      <point x="476" y="520" type="line"/>
      <point x="51" y="520" type="line"/>
      <point x="51" y="424" type="line"/>
    </contour>
  </outline>
</glyph>
<glyph name="germandbls" format="1">
  <advance width="898"/>
  <unicode hex="00DF"/>
  <outline>
    <contour>
      <point x="819" y="-11"/>
      <point x="871" y="43"/>
      <point x="871" y="109" type="curve" smooth="yes"/>
      <point x="871" y="177"/>
      <point x="815" y="208"/>
      <point x="680" y="226" type="curve" smooth="yes"/>
      <point x="553" y="241"/>
      <point x="540" y="240"/>
      <point x="540" y="256" type="curve" smooth="yes"/>
      <point x="540" y="275"/>
      <point x="579" y="284"/>
      <point x="645" y="300" type="curve" smooth="yes"/>
      <point x="749" y="323"/>
      <point x="816" y="340"/>
      <point x="816" y="421" type="curve" smooth="yes"/>
      <point x="816" y="516"/>
      <point x="668" y="585"/>
      <point x="472" y="585" type="curve" smooth="yes"/>
      <point x="277" y="585"/>
      <point x="205" y="502"/>
      <point x="205" y="385" type="curve" smooth="yes"/>
      <point x="205" y="0" type="line"/>
      <point x="318" y="0" type="line"/>
      <point x="318" y="387" type="line" smooth="yes"/>
      <point x="318" y="435"/>
      <point x="343" y="489"/>
      <point x="471" y="489" type="curve" smooth="yes"/>
      <point x="594" y="489"/>
      <point x="697" y="465"/>
      <point x="697" y="414" type="curve" smooth="yes"/>
      <point x="697" y="366"/>
      <point x="637" y="372"/>
      <point x="559" y="353" type="curve" smooth="yes"/>
      <point x="456" y="328"/>
      <point x="421" y="297"/>
      <point x="421" y="239" type="curve" smooth="yes"/>
      <point x="421" y="185"/>
      <point x="448" y="148"/>
      <point x="610" y="125" type="curve" smooth="yes"/>
      <point x="719" y="112"/>
      <point x="753" y="111"/>
      <point x="753" y="90" type="curve" smooth="yes"/>
      <point x="753" y="75"/>
      <point x="717" y="60"/>
      <point x="672" y="60" type="curve" smooth="yes"/>
      <point x="622" y="60"/>
      <point x="508" y="78"/>
      <point x="450" y="143" type="curve"/>
      <point x="412" y="142" type="line"/>
      <point x="412" y="-1" type="line"/>
      <point x="497" y="-1" type="line"/>
      <point x="497" y="106" type="line"/>
      <point x="455" y="93" type="line"/>
      <point x="520" y="14"/>
      <point x="594" y="-11"/>
      <point x="689" y="-11" type="curve" smooth="yes"/>
    </contour>
    <contour>
      <point x="281" y="0" type="line"/>
      <point x="281" y="90" type="line"/>
      <point x="66" y="90" type="line"/>
      <point x="66" y="0" type="line"/>
    </contour>
    <contour>
      <point x="286" y="267" type="line"/>
      <point x="286" y="357" type="line"/>
      <point x="66" y="357" type="line"/>
      <point x="66" y="267" type="line"/>
    </contour>
  </outline>
</glyph>
<glyph name="eth" format="1">
  <advance width="707"/>
  <unicode hex="00F0"/>
  <outline>
    <contour>
      <point x="540" y="-18"/>
      <point x="657" y="85"/>
      <point x="657" y="214" type="curve" smooth="yes"/>
      <point x="657" y="393"/>
      <point x="462" y="526"/>
      <point x="202" y="595" type="curve"/>
      <point x="162" y="499" type="line"/>
      <point x="391" y="439"/>
      <point x="543" y="352"/>
      <point x="543" y="214" type="curve" smooth="yes"/>
      <point x="543" y="120"/>
      <point x="449" y="70"/>
      <point x="333" y="70" type="curve" smooth="yes"/>
      <point x="233" y="70"/>
      <point x="163" y="98"/>
      <point x="163" y="147" type="curve" smooth="yes"/>
      <point x="163" y="194"/>
      <point x="231" y="221"/>
      <point x="331" y="221" type="curve" smooth="yes"/>
      <point x="411" y="221"/>
      <point x="515" y="201"/>
      <point x="583" y="164" type="curve"/>
      <point x="587" y="244" type="line"/>
      <point x="502" y="292"/>
      <point x="400" y="310"/>
      <point x="304" y="310" type="curve" smooth="yes"/>
      <point x="150" y="310"/>
      <point x="35" y="242"/>
      <point x="35" y="147" type="curve" smooth="yes"/>
      <point x="35" y="47"/>
      <point x="158" y="-20"/>
      <point x="331" y="-19" type="curve" smooth="yes"/>
    </contour>
    <contour>
      <point x="494" y="590" type="line"/>
      <point x="423" y="641" type="line"/>
      <point x="241" y="399" type="line"/>
      <point x="312" y="349" type="line"/>
    </contour>
  </outline>
</glyph>
<glyph name="uni0237" format="1">
  <advance width="421"/>
  <unicode hex="0237"/>
  <outline>
    <contour>
      <point x="258" y="-210"/>
      <point x="340" y="-132"/>
      <point x="340" y="19" type="curve" smooth="yes"/>
      <point x="340" y="357" type="line"/>
      <point x="227" y="357" type="line"/>
      <point x="227" y="17" type="line" smooth="yes"/>
      <point x="227" y="-65"/>
      <point x="194" y="-109"/>
      <point x="126" y="-109" type="curve" smooth="yes"/>
      <point x="88" y="-109"/>
      <point x="59" y="-104"/>
      <point x="8" y="-92" type="curve"/>
      <point x="-20" y="-187" type="line"/>
      <point x="30" y="-199"/>
      <point x="67" y="-210"/>
      <point x="131" y="-210" type="curve" smooth="yes"/>
    </contour>
    <contour>
      <point x="310" y="267" type="line"/>
      <point x="310" y="357" type="line"/>
      <point x="87" y="357" type="line"/>
      <point x="87" y="267" type="line"/>
    </contour>
    <contour>
      <point x="245" y="436" type="move" name="top"/>
    </contour>
    <contour>
      <point x="259" y="0" type="move" name="bottom"/>
    </contour>
  </outline>
</glyph>
<glyph name="uni02B9" format="1">
  <advance width="345"/>
  <unicode hex="02B9"/>
  <outline>
    <contour>
      <point x="96" y="330" type="line"/>
      <point x="167" y="317" type="line"/>
      <point x="264" y="537" type="line"/>
      <point x="149" y="563" type="line"/>
    </contour>
  </outline>
</glyph>
<glyph name="uni02BA" format="1">
  <advance width="532"/>
  <unicode hex="02BA"/>
  <outline>
    <contour>
      <point x="96" y="324" type="line"/>
      <point x="169" y="318" type="line"/>
      <point x="245" y="544" type="line"/>
      <point x="127" y="558" type="line"/>
    </contour>
    <contour>
      <point x="302" y="323" type="line"/>
      <point x="375" y="317" type="line"/>
      <point x="451" y="543" type="line"/>
      <point x="333" y="558" type="line"/>
    </contour>
  </outline>
</glyph>
<glyph name="uni030B" format="1">
  <advance width="532"/>
  <unicode hex="030B"/>
  <outline>
    <contour>
      <point x="479" y="735" type="line"/>
      <point x="404" y="805" type="line"/>
      <point x="249" y="628" type="line"/>
      <point x="302" y="580" type="line"/>
    </contour>
    <contour>
      <point x="283" y="735" type="line"/>
      <point x="208" y="805" type="line"/>
      <point x="53" y="628" type="line"/>
      <point x="106" y="580" type="line"/>
    </contour>
    <contour>
      <point x="256" y="520" type="move" name="_top"/>
    </contour>
  </outline>
</glyph>
<glyph name="uni0335" format="1">
  <advance width="637"/>
  <unicode hex="0335"/>
  <outline>
    <contour>
      <point x="33" y="284" type="line"/>
      <point x="33" y="187" type="line"/>
      <point x="603" y="187" type="line"/>
      <point x="603" y="284" type="line"/>
    </contour>
  </outline>
</glyph>
<glyph name="uni0414" format="1">
  <advance width="948"/>
  <unicode hex="0414"/>
  <outline>
    <contour>
      <point x="819" y="13" type="line"/>
      <point x="617" y="461" type="line" smooth="yes"/>
      <point x="331" y="461" type="line"/>
      <point x="131" y="13" type="line"/>
      <point x="251" y="13" type="line"/>
      <point x="442" y="453" type="line"/>
      <point x="504" y="453" type="line"/>
      <point x="695" y="13" type="line"/>
    </contour>
    <contour>
      <point x="254" y="-121" type="line"/>
      <point x="247" y="13" type="line"/>
      <point x="131" y="13" type="line"/>
      <point x="152" y="-121" type="line"/>
    </contour>
    <contour>
      <point x="759" y="0" type="line"/>
      <point x="759" y="97" type="line"/>
      <point x="176" y="97" type="line"/>
      <point x="176" y="0" type="line"/>
    </contour>
    <contour>
      <point x="797" y="-121" type="line"/>
      <point x="819" y="13" type="line"/>
      <point x="699" y="13" type="line"/>
      <point x="695" y="-121" type="line"/>
    </contour>
    <contour>
      <point x="738" y="424" type="line"/>
      <point x="738" y="520" type="line"/>
      <point x="208" y="520" type="line"/>
      <point x="208" y="424" type="line"/>
    </contour>
  </outline>
</glyph>
<glyph name="uni0416" format="1">
  <advance width="1376"/>
  <unicode hex="0416"/>
  <outline>
    <contour>
      <point x="848" y="0" type="line" smooth="yes"/>
      <point x="848" y="96" type="line" smooth="yes"/>
      <point x="525" y="96" type="line" smooth="yes"/>
      <point x="525" y="0" type="line" smooth="yes"/>
    </contour>
    <contour>
      <point x="749" y="53" type="line" smooth="yes"/>
      <point x="749" y="464" type="line" smooth="yes"/>
      <point x="627" y="464" type="line" smooth="yes"/>
      <point x="627" y="53" type="line" smooth="yes"/>
    </contour>
    <contour>
      <point x="848" y="424" type="line" smooth="yes"/>
      <point x="848" y="520" type="line" smooth="yes"/>
      <point x="525" y="520" type="line" smooth="yes"/>
      <point x="525" y="424" type="line" smooth="yes"/>
    </contour>
    <contour>
      <point x="519" y="223" type="line"/>
      <point x="636" y="260" type="line"/>
      <point x="309" y="442" type="line"/>
      <point x="148" y="442" type="line"/>
    </contour>
    <contour>
      <point x="283" y="72" type="line"/>
      <point x="637" y="260" type="line"/>
      <point x="524" y="291" type="line"/>
      <point x="144" y="72" type="line"/>
    </contour>
    <contour>
      <point x="421" y="424" type="line" smooth="yes"/>
      <point x="421" y="520" type="line" smooth="yes"/>
      <point x="74" y="520" type="line" smooth="yes"/>
      <point x="74" y="424" type="line" smooth="yes"/>
    </contour>
    <contour>
      <point x="421" y="0" type="line" smooth="yes"/>
      <point x="421" y="96" type="line" smooth="yes"/>
      <point x="74" y="96" type="line" smooth="yes"/>
      <point x="74" y="0" type="line" smooth="yes"/>
    </contour>
    <contour>
      <point x="1067" y="78" type="line"/>
      <point x="1228" y="78" type="line"/>
      <point x="857" y="297" type="line"/>
      <point x="740" y="260" type="line"/>
    </contour>
    <contour>
      <point x="1233" y="448" type="line"/>
      <point x="1094" y="448" type="line"/>
      <point x="740" y="260" type="line"/>
      <point x="852" y="229" type="line"/>
    </contour>
    <contour>
      <point x="1302" y="0" type="line" smooth="yes"/>
      <point x="1302" y="95" type="line" smooth="yes"/>
      <point x="955" y="95" type="line" smooth="yes"/>
      <point x="955" y="0" type="line" smooth="yes"/>
    </contour>
    <contour>
      <point x="1302" y="424" type="line" smooth="yes"/>
      <point x="1302" y="520" type="line" smooth="yes"/>
      <point x="955" y="520" type="line" smooth="yes"/>
      <point x="955" y="424" type="line" smooth="yes"/>
    </contour>
  </outline>
</glyph>
<glyph name="endash" format="1">
  <advance width="602"/>
  <unicode hex="2013"/>
  <outline>
    <contour>
      <point x="22" y="228" type="line"/>
      <point x="22" y="130" type="line"/>
      <point x="581" y="130" type="line"/>
      <point x="581" y="228" type="line"/>
    </contour>
  </outline>
</glyph>
<glyph name="quoteright" format="1">
  <advance width="306"/>
  <unicode hex="2019"/>
  <outline>
    <contour>
      <point x="179" y="368"/>
      <point x="243" y="427"/>
      <point x="243" y="482" type="curve" smooth="yes"/>
      <point x="243" y="537"/>
      <point x="210" y="568"/>
      <point x="155" y="568" type="curve" smooth="yes"/>
      <point x="103" y="568"/>
      <point x="68" y="547"/>
      <point x="68" y="512" type="curve" smooth="yes"/>
      <point x="68" y="481"/>
      <point x="96" y="459"/>
      <point x="139" y="459" type="curve" smooth="yes"/>
      <point x="154" y="459"/>
      <point x="173" y="461"/>
      <point x="182" y="463" type="curve"/>
      <point x="178" y="425"/>
      <point x="130" y="386"/>
      <point x="88" y="348" type="curve"/>
      <point x="117" y="319" type="line"/>
    </contour>
  </outline>
</glyph>
<glyph name="quotesinglbase" format="1">
  <advance width="306"/>
  <unicode hex="201A"/>
  <outline>
    <contour>
      <point x="179" y="-100"/>
      <point x="243" y="-41"/>
      <point x="243" y="14" type="curve" smooth="yes"/>
      <point x="243" y="69"/>
      <point x="210" y="100"/>
      <point x="155" y="100" type="curve" smooth="yes"/>
      <point x="103" y="100"/>
      <point x="68" y="79"/>
      <point x="68" y="44" type="curve" smooth="yes"/>
      <point x="68" y="13"/>
      <point x="96" y="-10"/>
      <point x="139" y="-10" type="curve" smooth="yes"/>
      <point x="154" y="-10"/>
      <point x="173" y="-8"/>
      <point x="182" y="-5" type="curve"/>
      <point x="178" y="-43"/>
      <point x="130" y="-82"/>
      <point x="88" y="-120" type="curve"/>
      <point x="117" y="-149" type="line"/>
    </contour>
  </outline>
</glyph>
<glyph name="quotereversed" format="1">
  <advance width="306"/>
  <unicode hex="201B"/>
  <outline>
    <contour>
      <point x="217" y="342" type="line"/>
      <point x="176" y="380"/>
      <point x="128" y="420"/>
      <point x="124" y="458" type="curve"/>
      <point x="133" y="455"/>
      <point x="152" y="453"/>
      <point x="167" y="453" type="curve" smooth="yes"/>
      <point x="210" y="453"/>
      <point x="238" y="476"/>
      <point x="238" y="506" type="curve" smooth="yes"/>
      <point x="238" y="541"/>
      <point x="203" y="562"/>
      <point x="151" y="562" type="curve" smooth="yes"/>
      <point x="95" y="562"/>
      <point x="63" y="531"/>
      <point x="63" y="476" type="curve" smooth="yes"/>
      <point x="63" y="421"/>
      <point x="126" y="362"/>
      <point x="188" y="313" type="curve"/>
    </contour>
  </outline>
</glyph>
<glyph name="quotedblright" format="1">
  <advance width="524"/>
  <unicode hex="201D"/>
  <outline>
    <contour>
      <point x="397" y="361"/>
      <point x="461" y="419"/>
      <point x="461" y="474" type="curve" smooth="yes"/>
      <point x="461" y="530"/>
      <point x="428" y="561"/>
      <point x="373" y="561" type="curve" smooth="yes"/>
      <point x="321" y="561"/>
      <point x="286" y="539"/>
      <point x="286" y="505" type="curve" smooth="yes"/>
      <point x="286" y="473"/>
      <point x="314" y="451"/>
      <point x="357" y="451" type="curve" smooth="yes"/>
      <point x="372" y="451"/>
      <point x="391" y="453"/>
      <point x="400" y="455" type="curve"/>
      <point x="396" y="417"/>
      <point x="348" y="378"/>
      <point x="306" y="341" type="curve"/>
      <point x="335" y="312" type="line"/>
    </contour>
    <contour>
      <point x="179" y="363"/>
      <point x="243" y="422"/>
      <point x="243" y="477" type="curve" smooth="yes"/>
      <point x="243" y="532"/>
      <point x="210" y="563"/>
      <point x="155" y="563" type="curve" smooth="yes"/>
      <point x="103" y="563"/>
      <point x="68" y="542"/>
      <point x="68" y="507" type="curve" smooth="yes"/>
      <point x="68" y="476"/>
      <point x="96" y="454"/>
      <point x="139" y="454" type="curve" smooth="yes"/>
      <point x="154" y="454"/>
      <point x="173" y="456"/>
      <point x="182" y="458" type="curve"/>
      <point x="178" y="420"/>
      <point x="130" y="381"/>
      <point x="88" y="343" type="curve"/>
      <point x="117" y="314" type="line"/>
    </contour>
  </outline>
</glyph>
<glyph name="ellipsis" format="1">
  <advance width="859"/>
  <unicode hex="2026"/>
  <outline>
    <contour>
      <point x="770" y="-10"/>
      <point x="803" y="17"/>
      <point x="803" y="54" type="curve"/>
      <point x="803" y="94"/>
      <point x="770" y="120"/>
      <point x="716" y="120" type="curve"/>
      <point x="664" y="120"/>
      <point x="628" y="94"/>
      <point x="628" y="54" type="curve"/>
      <point x="628" y="17"/>
      <point x="664" y="-10"/>
      <point x="716" y="-10" type="curve"/>
    </contour>
    <contour>
      <point x="198" y="-10"/>
      <point x="231" y="17"/>
      <point x="231" y="54" type="curve"/>
      <point x="231" y="94"/>
      <point x="198" y="120"/>
      <point x="144" y="120" type="curve"/>
      <point x="92" y="120"/>
      <point x="56" y="94"/>
      <point x="56" y="54" type="curve"/>
      <point x="56" y="17"/>
      <point x="92" y="-10"/>
      <point x="144" y="-10" type="curve"/>
    </contour>
    <contour>
      <point x="484" y="-10"/>
      <point x="517" y="17"/>
      <point x="517" y="54" type="curve"/>
      <point x="517" y="94"/>
      <point x="484" y="120"/>
      <point x="430" y="120" type="curve"/>
      <point x="378" y="120"/>
      <point x="342" y="94"/>
      <point x="342" y="54" type="curve"/>
      <point x="342" y="17"/>
      <point x="378" y="-10"/>
      <point x="430" y="-10" type="curve"/>
    </contour>
  </outline>
</glyph>
<glyph name="guilsinglleft" format="1">
  <advance width="590"/>
  <unicode hex="2039"/>
  <outline>
    <contour>
      <point x="378" y="181"/>
      <point x="459" y="255"/>
      <point x="518" y="350" type="curve"/>
      <point x="430" y="389" type="line"/>
      <point x="379" y="299"/>
      <point x="293" y="233"/>
      <point x="96" y="233" type="curve" smooth="yes"/>
      <point x="61" y="233" type="line"/>
      <point x="61" y="135" type="line"/>
      <point x="97" y="135" type="line" smooth="yes"/>
      <point x="295" y="135"/>
      <point x="380" y="69"/>
      <point x="431" y="-21" type="curve"/>
      <point x="520" y="17" type="line"/>
      <point x="460" y="113"/>
      <point x="379" y="187"/>
      <point x="126" y="187" type="curve"/>
      <point x="126" y="181" type="line"/>
    </contour>
  </outline>
</glyph>
<glyph name="guilsinglright" format="1">
  <advance width="590"/>
  <unicode hex="203A"/>
  <outline>
    <contour>
      <point x="211" y="69"/>
      <point x="297" y="135"/>
      <point x="493" y="135" type="curve" smooth="yes"/>
      <point x="529" y="135" type="line"/>
      <point x="529" y="233" type="line"/>
      <point x="492" y="233" type="line" smooth="yes"/>
      <point x="294" y="233"/>
      <point x="210" y="299"/>
      <point x="158" y="389" type="curve"/>
      <point x="70" y="350" type="line"/>
      <point x="129" y="255"/>
      <point x="210" y="181"/>
      <point x="463" y="181" type="curve"/>
      <point x="463" y="187" type="line"/>
      <point x="211" y="187"/>
      <point x="131" y="113"/>
      <point x="71" y="17" type="curve"/>
      <point x="160" y="-21" type="line"/>
    </contour>
  </outline>
</glyph>
<glyph name="a.alt" format="1">
  <advance width="835"/>
  <outline>
    <contour>
      <point x="798" y="-5"/>
      <point x="833" y="56"/>
      <point x="833" y="126" type="curve" smooth="yes"/>
      <point x="833" y="174" type="line"/>
      <point x="774" y="174" type="line"/>
      <point x="774" y="125" type="line" smooth="yes"/>
      <point x="774" y="93"/>
      <point x="764" y="69"/>
      <point x="736" y="69" type="curve" smooth="yes"/>
      <point x="704" y="69"/>
      <point x="696" y="96"/>
      <point x="696" y="132" type="curve"/>
      <point x="696" y="174" type="line" smooth="yes"/>
      <point x="696" y="294"/>
      <point x="597" y="369"/>
      <point x="437" y="369" type="curve" smooth="yes"/>
      <point x="316" y="369"/>
      <point x="203" y="354"/>
      <point x="93" y="329" type="curve"/>
      <point x="111" y="239" type="line"/>
      <point x="221" y="262"/>
      <point x="309" y="274"/>
      <point x="409" y="274" type="curve" smooth="yes"/>
      <point x="510" y="274"/>
      <point x="586" y="239"/>
      <point x="586" y="169" type="curve" smooth="yes"/>
      <point x="586" y="134" type="line"/>
      <point x="586" y="51"/>
      <point x="624" y="-5"/>
      <point x="715" y="-5" type="curve" smooth="yes"/>
    </contour>
    <contour>
      <point x="387" y="-9"/>
      <point x="526" y="29"/>
      <point x="618" y="73" type="curve"/>
      <point x="620" y="126" type="line"/>
      <point x="526" y="98"/>
      <point x="375" y="80"/>
      <point x="299" y="80" type="curve" smooth="yes"/>
      <point x="229" y="80"/>
      <point x="199" y="91"/>
      <point x="199" y="116" type="curve" smooth="yes"/>
      <point x="199" y="143"/>
      <point x="240" y="155"/>
      <point x="320" y="155" type="curve" smooth="yes"/>
      <point x="416" y="155"/>
      <point x="516" y="145"/>
      <point x="620" y="130" type="curve"/>
      <point x="620" y="185" type="line"/>
      <point x="535" y="207"/>
      <point x="414" y="229"/>
      <point x="299" y="229" type="curve" smooth="yes"/>
      <point x="163" y="229"/>
      <point x="71" y="196"/>
      <point x="71" y="108" type="curve" smooth="yes"/>
      <point x="71" y="25"/>
      <point x="156" y="-8"/>
      <point x="268" y="-8" type="curve" smooth="yes"/>
    </contour>
    <contour>
      <point x="777" y="9" type="move" name="ogonek"/>
    </contour>
    <contour>
      <point x="436" y="-11" type="move" name="bottom"/>
    </contour>
    <contour>
      <point x="436" y="369" type="move" name="top"/>
    </contour>
  </outline>
</glyph>
<glyph name="ampersand.001" format="1">
  <advance width="856"/>
  <outline>
    <contour>
      <point x="1099" y="-279"/>
      <point x="1213" y="-230"/>
      <point x="1280" y="-123" type="curve"/>
      <point x="1208" y="-62" type="line"/>
      <point x="1152" y="-136"/>
      <point x="1052" y="-170"/>
      <point x="947" y="-170" type="curve" smooth="yes"/>
      <point x="600" y="-170"/>
      <point x="391" y="187"/>
      <point x="391" y="359" type="curve" smooth="yes"/>
      <point x="391" y="406"/>
      <point x="420" y="437"/>
      <point x="455" y="437" type="curve" smooth="yes"/>
      <point x="478" y="437"/>
      <point x="489" y="423"/>
      <point x="489" y="402" type="curve" smooth="yes"/>
      <point x="489" y="372"/>
      <point x="447" y="329"/>
      <point x="317" y="317" type="curve" smooth="yes"/>
      <point x="116" y="295"/>
      <point x="42" y="232"/>
      <point x="42" y="143" type="curve" smooth="yes"/>
      <point x="42" y="52"/>
      <point x="138" y="-12"/>
      <point x="347" y="-12" type="curve" smooth="yes"/>
      <point x="667" y="-12"/>
      <point x="799" y="150"/>
      <point x="799" y="272" type="curve" smooth="yes"/>
      <point x="799" y="344"/>
      <point x="765" y="387"/>
      <point x="746" y="408" type="curve"/>
      <point x="648" y="359" type="line"/>
      <point x="665" y="345"/>
      <point x="686" y="315"/>
      <point x="686" y="274" type="curve" smooth="yes"/>
      <point x="686" y="163"/>
      <point x="557" y="82"/>
      <point x="346" y="82" type="curve" smooth="yes"/>
      <point x="214" y="82"/>
      <point x="162" y="112"/>
      <point x="162" y="152" type="curve" smooth="yes"/>
      <point x="162" y="191"/>
      <point x="202" y="222"/>
      <point x="347" y="233" type="curve" smooth="yes"/>
      <point x="515" y="246"/>
      <point x="602" y="327"/>
      <point x="602" y="405" type="curve" smooth="yes"/>
      <point x="602" y="473"/>
      <point x="549" y="528"/>
      <point x="453" y="528" type="curve" smooth="yes"/>
      <point x="345" y="528"/>
      <point x="268" y="447"/>
      <point x="268" y="358" type="curve" smooth="yes"/>
      <point x="266" y="138"/>
      <point x="517" y="-279"/>
      <point x="947" y="-279" type="curve" smooth="yes"/>
    </contour>
  </outline>
</glyph>
<glyph name="t.alt" format="1">
  <advance width="480"/>
  <outline>
    <contour>
      <point x="413" y="357" type="line"/>
      <point x="33" y="357" type="line"/>
      <point x="33" y="267" type="line"/>
      <point x="413" y="267" type="line"/>
    </contour>
    <contour>
      <point x="428" y="139" type="line"/>
      <point x="391" y="112"/>
      <point x="332" y="92"/>
      <point x="287" y="92" type="curve" smooth="yes"/>
      <point x="240" y="92"/>
      <point x="220" y="105"/>
      <point x="220" y="168" type="curve" smooth="yes"/>
      <point x="220" y="232"/>
      <point x="245" y="301"/>
      <point x="261" y="340" type="curve"/>
      <point x="255" y="347" type="line"/>
      <point x="255" y="455" type="line"/>
      <point x="142" y="455" type="line"/>
      <point x="142" y="348" type="line"/>
      <point x="150" y="342" type="line"/>
      <point x="138" y="305"/>
      <point x="105" y="233"/>
      <point x="105" y="150" type="curve" smooth="yes"/>
      <point x="105" y="36"/>
      <point x="166" y="-10"/>
      <point x="275" y="-10" type="curve" smooth="yes"/>
      <point x="360" y="-10"/>
      <point x="427" y="23"/>
      <point x="465" y="47" type="curve"/>
    </contour>
    <contour>
      <point x="277" y="-10" type="move" name="bottom"/>
    </contour>
    <contour>
      <point x="237" y="456" type="move" name="top"/>
    </contour>
    <contour>
      <point x="330" y="419" type="move" name="topright"/>
    </contour>
    <contour>
      <point x="237" y="179" type="move" name="center"/>
    </contour>
  </outline>
</glyph>
